<svg width="6" height="10" viewBox="0 0 6 10" fill="none" xmlns="http://www.w3.org/2000/svg">
<path d="M3.82443 4.99988L0.251908 1.50212C0.0839695 1.3377 0 1.12843 0 0.874317C0 0.620207 0.0839695 0.410939 0.251908 0.246515C0.419847 0.0820902 0.633588 -0.00012207 0.89313 -0.00012207C1.15267 -0.00012207 1.36641 0.0820902 1.53435 0.246515L5.74809 4.37208C5.83969 4.46176 5.90458 4.55892 5.94275 4.66356C5.98092 4.76819 6 4.8803 6 4.99988C6 5.11946 5.98092 5.23157 5.94275 5.3362C5.90458 5.44083 5.83969 5.53799 5.74809 5.62768L1.53435 9.75324C1.36641 9.91767 1.15267 9.99988 0.89313 9.99988C0.633588 9.99988 0.419847 9.91767 0.251908 9.75324C0.0839695 9.58882 0 9.37955 0 9.12544C0 8.87133 0.0839695 8.66206 0.251908 8.49764L3.82443 4.99988Z" fill="#0CA99F" fill-opacity="0.3"/>
</svg>
