<svg width="25" height="24" viewBox="0 0 25 24" fill="none" xmlns="http://www.w3.org/2000/svg">
<path d="M7.90625 21C7.35625 21 6.88558 20.8043 6.49425 20.413C6.10225 20.021 5.90625 19.55 5.90625 19V6C5.62292 6 5.38525 5.90433 5.19325 5.713C5.00192 5.521 4.90625 5.28333 4.90625 5C4.90625 4.71667 5.00192 4.479 5.19325 4.287C5.38525 4.09567 5.62292 4 5.90625 4H9.90625C9.90625 3.71667 10.0023 3.479 10.1943 3.287C10.3856 3.09567 10.6229 3 10.9062 3H14.9062C15.1896 3 15.4273 3.09567 15.6193 3.287C15.8106 3.479 15.9062 3.71667 15.9062 4H19.9062C20.1896 4 20.4269 4.09567 20.6182 4.287C20.8102 4.479 20.9062 4.71667 20.9062 5C20.9062 5.28333 20.8102 5.521 20.6182 5.713C20.4269 5.90433 20.1896 6 19.9062 6V19C19.9062 19.55 19.7106 20.021 19.3193 20.413C18.9273 20.8043 18.4563 21 17.9062 21H7.90625ZM7.90625 6V19H17.9062V6H7.90625ZM9.90625 16C9.90625 16.2833 10.0023 16.5207 10.1943 16.712C10.3856 16.904 10.6229 17 10.9062 17C11.1896 17 11.4273 16.904 11.6193 16.712C11.8106 16.5207 11.9062 16.2833 11.9062 16V9C11.9062 8.71667 11.8106 8.479 11.6193 8.287C11.4273 8.09567 11.1896 8 10.9062 8C10.6229 8 10.3856 8.09567 10.1943 8.287C10.0023 8.479 9.90625 8.71667 9.90625 9V16ZM13.9062 16C13.9062 16.2833 14.0023 16.5207 14.1943 16.712C14.3856 16.904 14.6229 17 14.9062 17C15.1896 17 15.4273 16.904 15.6193 16.712C15.8106 16.5207 15.9062 16.2833 15.9062 16V9C15.9062 8.71667 15.8106 8.479 15.6193 8.287C15.4273 8.09567 15.1896 8 14.9062 8C14.6229 8 14.3856 8.09567 14.1943 8.287C14.0023 8.479 13.9062 8.71667 13.9062 9V16Z" fill="white"/>
</svg>
