<svg width="24" height="24" viewBox="0 0 24 24" fill="none" xmlns="http://www.w3.org/2000/svg">
<path d="M8 18C7.45 18 6.97933 17.8043 6.588 17.413C6.196 17.021 6 16.55 6 16V4C6 3.45 6.196 2.979 6.588 2.587C6.97933 2.19567 7.45 2 8 2H20C20.55 2 21.021 2.19567 21.413 2.587C21.8043 2.979 22 3.45 22 4V16C22 16.55 21.8043 17.021 21.413 17.413C21.021 17.8043 20.55 18 20 18H8ZM8 16H20V4H8V16ZM4 22C3.45 22 2.97933 21.8043 2.588 21.413C2.196 21.021 2 20.55 2 20V7C2 6.71667 2.096 6.479 2.288 6.287C2.47933 6.09567 2.71667 6 3 6C3.28333 6 3.521 6.09567 3.713 6.287C3.90433 6.479 4 6.71667 4 7V20H17C17.2833 20 17.5207 20.096 17.712 20.288C17.904 20.4793 18 20.7167 18 21C18 21.2833 17.904 21.5207 17.712 21.712C17.5207 21.904 17.2833 22 17 22H4Z" fill="white"/>
<path d="M11.8794 13.1296C11.6079 13.1296 11.3719 13.0294 11.1716 12.829C10.9712 12.6287 10.8713 12.393 10.8718 12.1219C10.8713 11.8509 10.9712 11.6152 11.1716 11.4148L12.5858 10.0006L11.1716 8.58639C10.9712 8.38604 10.8713 8.15034 10.8718 7.87928C10.8713 7.60823 10.9712 7.37252 11.1716 7.17218C11.3719 6.97183 11.6079 6.87166 11.8794 6.87166C12.15 6.87166 12.3854 6.97183 12.5858 7.17218L14 8.58639L15.4142 7.17218C15.6146 6.97183 15.8505 6.87166 16.122 6.87166C16.3926 6.87166 16.6281 6.97183 16.8284 7.17218C17.0288 7.37252 17.1292 7.60823 17.1297 7.87928C17.1292 8.15034 17.0288 8.38604 16.8284 8.58639L15.4142 10.0006L16.8284 11.4148C17.0288 11.6152 17.1289 11.8506 17.1289 12.1212C17.1289 12.3927 17.0288 12.6287 16.8284 12.829C16.6281 13.0294 16.3924 13.1293 16.1213 13.1288C15.8503 13.1293 15.6146 13.0294 15.4142 12.829L14 11.4148L12.5858 12.829C12.3854 13.0294 12.15 13.1296 11.8794 13.1296Z" fill="white"/>
</svg>
