<svg width="21" height="18" viewBox="0 0 21 18" fill="none" xmlns="http://www.w3.org/2000/svg">
<path d="M11.9063 18C10.873 18 9.89367 17.8373 8.96834 17.512C8.04367 17.1873 7.198 16.7333 6.43134 16.15C6.198 15.9667 6.073 15.7293 6.05634 15.438C6.03967 15.146 6.148 14.8833 6.38134 14.65C6.56467 14.4667 6.78134 14.375 7.03134 14.375C7.28134 14.375 7.51467 14.45 7.73134 14.6C8.31467 15.0333 8.95634 15.375 9.65634 15.625C10.3563 15.875 11.1063 16 11.9063 16C13.8397 16 15.4897 15.3167 16.8563 13.95C18.223 12.5833 18.9063 10.9333 18.9063 9C18.9063 7.06667 18.223 5.41667 16.8563 4.05C15.4897 2.68333 13.8397 2 11.9063 2C9.973 2 8.323 2.68333 6.95634 4.05C5.58967 5.41667 4.90634 7.06667 4.90634 9V9.175L6.03134 8.05C6.21467 7.86667 6.44367 7.775 6.71834 7.775C6.99367 7.775 7.23134 7.86667 7.43134 8.05C7.63134 8.25 7.73134 8.48733 7.73134 8.762C7.73134 9.03733 7.63134 9.275 7.43134 9.475L4.60634 12.3C4.50634 12.4 4.398 12.4707 4.28134 12.512C4.16467 12.554 4.03967 12.575 3.90634 12.575C3.773 12.575 3.648 12.554 3.53134 12.512C3.41467 12.4707 3.30634 12.4 3.20634 12.3L0.356337 9.45C0.173004 9.26667 0.0856701 9.03333 0.0943368 8.75C0.102337 8.46667 0.198004 8.23333 0.381337 8.05C0.56467 7.85 0.798003 7.75 1.08134 7.75C1.36467 7.75 1.598 7.85 1.78134 8.05L2.90634 9.2V9C2.90634 7.75 3.144 6.579 3.61934 5.487C4.094 4.39567 4.73567 3.44567 5.54434 2.637C6.35234 1.829 7.30234 1.18733 8.39434 0.712C9.48567 0.237333 10.6563 0 11.9063 0C13.1563 0 14.3273 0.237333 15.4193 0.712C16.5107 1.18733 17.4607 1.829 18.2693 2.637C19.0773 3.44567 19.719 4.39567 20.1943 5.487C20.669 6.579 20.9063 7.75 20.9063 9C20.9063 11.5 20.0313 13.625 18.2813 15.375C16.5313 17.125 14.4063 18 11.9063 18Z" fill="white"/>
</svg>
