<svg width="21" height="20" viewBox="0 0 21 20" fill="none" xmlns="http://www.w3.org/2000/svg">
<path d="M12.0938 12C12.3771 12 12.6148 11.904 12.8068 11.712C12.9981 11.5207 13.0938 11.2833 13.0938 11V9H15.0938C15.3771 9 15.6144 8.904 15.8057 8.712C15.9977 8.52067 16.0938 8.28333 16.0938 8C16.0938 7.71667 15.9977 7.479 15.8057 7.287C15.6144 7.09567 15.3771 7 15.0938 7H13.0938V5C13.0938 4.71667 12.9981 4.479 12.8068 4.287C12.6148 4.09567 12.3771 4 12.0938 4C11.8104 4 11.5731 4.09567 11.3818 4.287C11.1898 4.479 11.0938 4.71667 11.0938 5V7H9.09375C8.81042 7 8.57308 7.09567 8.38175 7.287C8.18975 7.479 8.09375 7.71667 8.09375 8C8.09375 8.28333 8.18975 8.52067 8.38175 8.712C8.57308 8.904 8.81042 9 9.09375 9H11.0938V11C11.0938 11.2833 11.1898 11.5207 11.3818 11.712C11.5731 11.904 11.8104 12 12.0938 12ZM6.09375 16C5.54375 16 5.07308 15.8043 4.68175 15.413C4.28975 15.021 4.09375 14.55 4.09375 14V2C4.09375 1.45 4.28975 0.979 4.68175 0.587C5.07308 0.195667 5.54375 0 6.09375 0H18.0938C18.6438 0 19.1148 0.195667 19.5068 0.587C19.8981 0.979 20.0938 1.45 20.0938 2V14C20.0938 14.55 19.8981 15.021 19.5068 15.413C19.1148 15.8043 18.6438 16 18.0938 16H6.09375ZM6.09375 14H18.0938V2H6.09375V14ZM2.09375 20C1.54375 20 1.07308 19.8043 0.68175 19.413C0.28975 19.021 0.09375 18.55 0.09375 18V5C0.09375 4.71667 0.18975 4.479 0.38175 4.287C0.573083 4.09567 0.810417 4 1.09375 4C1.37708 4 1.61475 4.09567 1.80675 4.287C1.99808 4.479 2.09375 4.71667 2.09375 5V18H15.0938C15.3771 18 15.6144 18.096 15.8057 18.288C15.9977 18.4793 16.0938 18.7167 16.0938 19C16.0938 19.2833 15.9977 19.5207 15.8057 19.712C15.6144 19.904 15.3771 20 15.0938 20H2.09375Z" fill="white"/>
</svg>
