<svg width="25" height="24" viewBox="0 0 25 24" fill="none" xmlns="http://www.w3.org/2000/svg">
<path d="M5.09375 21C4.54375 21 4.07275 20.8043 3.68075 20.413C3.28942 20.021 3.09375 19.55 3.09375 19V5C3.09375 4.45 3.28942 3.979 3.68075 3.587C4.07275 3.19567 4.54375 3 5.09375 3H16.2687C16.5354 3 16.7897 3.05 17.0317 3.15C17.2731 3.25 17.4854 3.39167 17.6688 3.575L20.5187 6.425C20.7021 6.60833 20.8438 6.82067 20.9438 7.062C21.0438 7.304 21.0938 7.55833 21.0938 7.825V19C21.0938 19.55 20.8981 20.021 20.5068 20.413C20.1148 20.8043 19.6438 21 19.0938 21H5.09375ZM19.0938 7.85L16.2437 5H5.09375V19H19.0938V7.85ZM12.0938 18C12.9271 18 13.6354 17.7083 14.2188 17.125C14.8021 16.5417 15.0938 15.8333 15.0938 15C15.0938 14.1667 14.8021 13.4583 14.2188 12.875C13.6354 12.2917 12.9271 12 12.0938 12C11.2604 12 10.5521 12.2917 9.96875 12.875C9.38542 13.4583 9.09375 14.1667 9.09375 15C9.09375 15.8333 9.38542 16.5417 9.96875 17.125C10.5521 17.7083 11.2604 18 12.0938 18ZM7.09375 10H14.0938C14.3771 10 14.6148 9.904 14.8068 9.712C14.9981 9.52067 15.0938 9.28333 15.0938 9V7C15.0938 6.71667 14.9981 6.479 14.8068 6.287C14.6148 6.09567 14.3771 6 14.0938 6H7.09375C6.81042 6 6.57275 6.09567 6.38075 6.287C6.18942 6.479 6.09375 6.71667 6.09375 7V9C6.09375 9.28333 6.18942 9.52067 6.38075 9.712C6.57275 9.904 6.81042 10 7.09375 10ZM5.09375 7.85V19V5V7.85Z" fill="white"/>
</svg>
