<svg width="28" height="28" viewBox="0 0 28 28" fill="none" xmlns="http://www.w3.org/2000/svg">
<rect width="28" height="28" rx="14" fill="#047A73"/>
<path d="M14 14C12.9 14 11.9583 13.6083 11.175 12.825C10.3917 12.0417 10 11.1 10 10C10 8.9 10.3917 7.95833 11.175 7.175C11.9583 6.39167 12.9 6 14 6C15.1 6 16.0417 6.39167 16.825 7.175C17.6083 7.95833 18 8.9 18 10C18 11.1 17.6083 12.0417 16.825 12.825C16.0417 13.6083 15.1 14 14 14ZM6 22V19.2C6 18.6333 6.14583 18.1125 6.4375 17.6375C6.72917 17.1625 7.11667 16.8 7.6 16.55C8.63333 16.0333 9.68333 15.6458 10.75 15.3875C11.8167 15.1292 12.9 15 14 15C15.1 15 16.1833 15.1292 17.25 15.3875C18.3167 15.6458 19.3667 16.0333 20.4 16.55C20.8833 16.8 21.2708 17.1625 21.5625 17.6375C21.8542 18.1125 22 18.6333 22 19.2V22H6ZM8 20H20V19.2C20 19.0167 19.9542 18.85 19.8625 18.7C19.7708 18.55 19.65 18.4333 19.5 18.35C18.6 17.9 17.6917 17.5625 16.775 17.3375C15.8583 17.1125 14.9333 17 14 17C13.0667 17 12.1417 17.1125 11.225 17.3375C10.3083 17.5625 9.4 17.9 8.5 18.35C8.35 18.4333 8.22917 18.55 8.1375 18.7C8.04583 18.85 8 19.0167 8 19.2V20ZM14 12C14.55 12 15.0208 11.8042 15.4125 11.4125C15.8042 11.0208 16 10.55 16 10C16 9.45 15.8042 8.97917 15.4125 8.5875C15.0208 8.19583 14.55 8 14 8C13.45 8 12.9792 8.19583 12.5875 8.5875C12.1958 8.97917 12 9.45 12 10C12 10.55 12.1958 11.0208 12.5875 11.4125C12.9792 11.8042 13.45 12 14 12Z" fill="white"/>
</svg>
