<svg width="18" height="18" viewBox="0 0 18 18" fill="none" xmlns="http://www.w3.org/2000/svg">
<rect width="18" height="18" rx="4" fill="#FEB700"/>
<path d="M9.00005 10.3758L6.10005 13.2758C5.91672 13.4591 5.68338 13.5508 5.40005 13.5508C5.11672 13.5508 4.88338 13.4591 4.70005 13.2758C4.51672 13.0924 4.42505 12.8591 4.42505 12.5758C4.42505 12.2924 4.51672 12.0591 4.70005 11.8758L7.60005 8.97578L4.70005 6.10078C4.51672 5.91745 4.42505 5.68411 4.42505 5.40078C4.42505 5.11745 4.51672 4.88411 4.70005 4.70078C4.88338 4.51745 5.11672 4.42578 5.40005 4.42578C5.68338 4.42578 5.91672 4.51745 6.10005 4.70078L9.00005 7.60078L11.875 4.70078C12.0584 4.51745 12.2917 4.42578 12.575 4.42578C12.8584 4.42578 13.0917 4.51745 13.275 4.70078C13.475 4.90078 13.575 5.13828 13.575 5.41328C13.575 5.68828 13.475 5.91745 13.275 6.10078L10.375 8.97578L13.275 11.8758C13.4584 12.0591 13.55 12.2924 13.55 12.5758C13.55 12.8591 13.4584 13.0924 13.275 13.2758C13.075 13.4758 12.8375 13.5758 12.5625 13.5758C12.2875 13.5758 12.0584 13.4758 11.875 13.2758L9.00005 10.3758Z" fill="white"/>
</svg>
