<svg width="16" height="16" viewBox="0 0 16 16" fill="none" xmlns="http://www.w3.org/2000/svg">
<mask id="mask0_431_828" style="mask-type:alpha" maskUnits="userSpaceOnUse" x="0" y="0" width="16" height="16">
<rect width="16" height="16" fill="#D9D9D9"/>
</mask>
<g mask="url(#mask0_431_828)">
<path d="M7.33333 11.332H8.66666V7.33203H7.33333V11.332ZM7.99999 5.9987C8.18888 5.9987 8.34722 5.93481 8.47499 5.80703C8.60277 5.67925 8.66666 5.52092 8.66666 5.33203C8.66666 5.14314 8.60277 4.98481 8.47499 4.85703C8.34722 4.72925 8.18888 4.66536 7.99999 4.66536C7.81111 4.66536 7.65277 4.72925 7.52499 4.85703C7.39722 4.98481 7.33333 5.14314 7.33333 5.33203C7.33333 5.52092 7.39722 5.67925 7.52499 5.80703C7.65277 5.93481 7.81111 5.9987 7.99999 5.9987ZM7.99999 14.6654C7.07777 14.6654 6.21111 14.4904 5.39999 14.1404C4.58888 13.7904 3.88333 13.3154 3.28333 12.7154C2.68333 12.1154 2.20833 11.4098 1.85833 10.5987C1.50833 9.78759 1.33333 8.92092 1.33333 7.9987C1.33333 7.07648 1.50833 6.20981 1.85833 5.3987C2.20833 4.58759 2.68333 3.88203 3.28333 3.28203C3.88333 2.68203 4.58888 2.20703 5.39999 1.85703C6.21111 1.50703 7.07777 1.33203 7.99999 1.33203C8.92222 1.33203 9.78888 1.50703 10.6 1.85703C11.4111 2.20703 12.1167 2.68203 12.7167 3.28203C13.3167 3.88203 13.7917 4.58759 14.1417 5.3987C14.4917 6.20981 14.6667 7.07648 14.6667 7.9987C14.6667 8.92092 14.4917 9.78759 14.1417 10.5987C13.7917 11.4098 13.3167 12.1154 12.7167 12.7154C12.1167 13.3154 11.4111 13.7904 10.6 14.1404C9.78888 14.4904 8.92222 14.6654 7.99999 14.6654Z" fill="#047A73"/>
</g>
</svg>
